<?xml version='1.0' encoding='utf-8'?><svg viewBox="0 0 129 129" xmlns="http://www.w3.org/2000/svg" xmlns:xlink="http://www.w3.org/1999/xlink"><style>:root>svg{display:none}:root>svg:target{display:block}</style><svg viewBox="0 0 129 129" id="left" xmlns="http://www.w3.org/2000/svg"><path d="M88.6 121.3c.8.8 1.8 1.2 2.9 1.2s2.1-.4 2.9-1.2c1.6-1.6 1.6-4.2 0-5.8l-51-51 51-51c1.6-1.6 1.6-4.2 0-5.8s-4.2-1.6-5.8 0l-54 53.9c-1.6 1.6-1.6 4.2 0 5.8l54 53.9z"/></svg><svg viewBox="0 0 129 129" id="right" xmlns="http://www.w3.org/2000/svg"><path d="M40.4 121.3c-.8.8-1.8 1.2-2.9 1.2s-2.1-.4-2.9-1.2c-1.6-1.6-1.6-4.2 0-5.8l51-51-51-51c-1.6-1.6-1.6-4.2 0-5.8 1.6-1.6 4.2-1.6 5.8 0l53.9 53.9c1.6 1.6 1.6 4.2 0 5.8l-53.9 53.9z"/></svg><svg viewBox="0 0 24 24" fill="none" stroke="currentColor" stroke-width="2" stroke-linecap="round" stroke-linejoin="round" class="cfeather cfeather-search" id="search" xmlns="http://www.w3.org/2000/svg"><circle cx="11" cy="11" r="8"/><path d="M21 21l-4.35-4.35"/></svg><svg viewBox="0 0 24 24" id="skype" xmlns="http://www.w3.org/2000/svg"><path d="M7.5 2A5.5 5.5 0 002 7.5c0 1.231.409 2.362 1.092 3.28-.054.4-.092.805-.092 1.22a9 9 0 009 9c.415 0 .82-.038 1.22-.092A5.468 5.468 0 0016.5 22a5.5 5.5 0 005.5-5.5 5.468 5.468 0 00-1.092-3.28c.054-.4.092-.805.092-1.22a9 9 0 00-9-9c-.415 0-.82.038-1.22.092A5.468 5.468 0 007.5 2zm0 2c.753 0 1.475.24 2.086.695l.652.489.809-.11A7.01 7.01 0 0112 5c3.86 0 7 3.14 7 7 0 .276-.023.578-.074.953l-.11.809.489.652c.455.611.695 1.333.695 2.086 0 1.93-1.57 3.5-3.5 3.5-.753 0-1.475-.24-2.086-.695l-.652-.489-.809.11c-.375.05-.677.074-.953.074-3.86 0-7-3.14-7-7 0-.276.023-.578.074-.953l.11-.809-.489-.652A3.47 3.47 0 014 7.5C4 5.57 5.57 4 7.5 4zm4.35 3C8.09 7 7.813 9.209 7.813 9.754c0 1.084.621 1.926 1.683 2.334 1.13.434 2.5.694 3.277.906 1.217.333 1.063 1.004 1.063 1.102 0 1.03-1.41 1.295-2.012 1.238-.68-.064-1.369.13-2.086-1.346-.128-.264-.363-.842-1.07-.842-.306 0-1.07.233-1.07.963 0 1.432 1.599 2.891 4.38 2.891 1.455 0 4.166-.503 4.168-3.111 0-2.271-2.29-2.67-3.974-3.104-.461-.119-2.18-.309-2.18-1.209 0-.267.374-.908 1.72-.908 1.388 0 1.69.65 1.874.986.154.267.28.474.435.573a1.091 1.091 0 001.375-.116c.2-.207.3-.435.3-.695C15.695 8.285 14.357 7 11.85 7z"/></svg><svg viewBox="0 0 24 24" id="telegram" xmlns="http://www.w3.org/2000/svg"><path d="M20.572 3.012a2.24 2.24 0 00-1.056.16c-.45.177-7.502 3.143-14.075 5.91l-2.171.914c-.841.341-1.266.896-1.266 1.643 0 .523.221 1.232 1.277 1.65l3.666 1.469c.317.95 1.054 3.159 1.239 3.746.11.348.387 1.225 1.09 1.43.143.049.294.074.447.074.443 0 .762-.206.918-.326l2.33-1.971 2.83 2.617c.109.111.686.672 1.46.672.968 0 1.701-.805 1.854-1.584.083-.427 2.813-14.129 2.813-14.127.245-1.099-.196-1.669-.479-1.912a1.59 1.59 0 00-.877-.365zm-.662 2.16c-.377 1.89-2.432 12.206-2.744 13.693l-4.137-3.826-2.806 2.377.777-3.041s5.363-5.428 5.686-5.744c.26-.253.314-.342.314-.43 0-.117-.06-.201-.2-.201-.124 0-.294.12-.384.176-1.143.713-6.012 3.486-8.408 4.85l-3.477-1.39 1.688-.708c4.299-1.81 11.955-5.034 13.691-5.756z"/></svg><svg viewBox="0 0 32 32" id="viber" xmlns="http://www.w3.org/2000/svg"><path d="M15.7 4c-1.9 0-6.6.2-9.1 2.6C4.8 8.3 4.1 10.9 4 14c-.2 4.9.9 8 2.7 9.6.4.3 1.4 1.1 3.3 1.7v2.5s0 1 .6 1.2c.1 0 .2.1.3.1.6 0 1.1-.7 1.8-1.4.6-.7 1.1-1.2 1.4-1.7h2.2c1.9 0 6.6-.2 9.1-2.6 1.8-1.8 2.5-4.4 2.5-7.7.1-.5.1-1.1.1-1.7-.1-3.7-1.2-6.2-2.7-7.6-.6-.5-3.2-2.4-8.8-2.4h-.8zm-.2 1.9H16.4c5.3 0 7.3 1.7 7.5 1.9 1.2 1 1.9 3.2 2 6.1v.4c.1.6.1 1.1.1 1.4-.1 3-.7 5-1.9 6.3-2.1 1.9-6.5 2-7.7 2h-1.9l-1.6 1.8-1 1.1-.2.3c-.2.2-.5.6-.7.7v-4.5c-2-.5-2.8-1.2-3-1.4-1.4-1.2-2.2-4.1-2-8v-1c.2-2.4.8-4 1.8-5.1 2.1-1.9 6.5-2 7.7-2zm-.1 2.2c-.5 0-.5.7 0 .7 3.7 0 6.9 2.5 6.9 7.2 0 .5.7.5.7 0 0-5.1-3.4-8-7.6-7.9zm-3.963.925a.875.875 0 00-.636.174c-1 .5-2.001 1.502-1.701 2.602 0 0 .2.899 1.3 2.799.6.9 1.1 1.7 1.6 2.3.5.7 1.3 1.5 2.1 2.1 1.6 1.3 4.1 2.6 5.2 2.9 1 .3 2.1-.7 2.6-1.7.2-.4.1-.9-.3-1.2-.6-.6-1.6-1.3-2.3-1.7-.5-.3-1.1-.1-1.3.2l-.5.6c-.2.3-.7.3-.7.3-3.3-.9-4.2-4.3-4.2-4.3s0-.4.3-.7l.6-.5c.3-.2.5-.8.2-1.3-.2-.3-.5-.9-.8-1.2-.3-.4-.9-1.1-.9-1.1a.962.962 0 00-.563-.275zM16.1 10.1c-.5-.1-.6.7-.1.7 2.8.2 4.4 2.1 4.3 4.5-.1.5.7.5.7 0 .1-2.8-1.7-5.1-4.9-5.2zm.3 1.9c-.5-.1-.5.7 0 .7 1.2 0 1.8.7 1.8 1.9.1.5.8.5.8 0-.1-1.6-1-2.6-2.6-2.6z"/></svg><svg viewBox="0 0 24 24" id="whatsapp" xmlns="http://www.w3.org/2000/svg"><path d="M12.012 2c-5.506 0-9.989 4.478-9.99 9.984a9.964 9.964 0 001.333 4.993L2 22l5.232-1.236a9.981 9.981 0 004.774 1.215h.004c5.505 0 9.985-4.48 9.988-9.985a9.922 9.922 0 00-2.922-7.066A9.923 9.923 0 0012.012 2zm-.002 2a7.95 7.95 0 015.652 2.342 7.93 7.93 0 012.336 5.65c-.002 4.404-3.584 7.987-7.99 7.987a7.999 7.999 0 01-3.817-.971l-.673-.367-.745.175-1.968.465.48-1.785.217-.8-.414-.72a7.98 7.98 0 01-1.067-3.992C4.023 7.582 7.607 4 12.01 4zM8.477 7.375a.917.917 0 00-.666.313c-.23.248-.875.852-.875 2.08 0 1.228.894 2.415 1.02 2.582.123.166 1.726 2.765 4.263 3.765 2.108.831 2.536.667 2.994.625.458-.04 1.477-.602 1.685-1.185.208-.583.209-1.085.147-1.188-.062-.104-.229-.166-.479-.29-.249-.126-1.476-.728-1.705-.811-.229-.083-.396-.125-.562.125-.166.25-.643.81-.79.976-.145.167-.29.19-.54.065-.25-.126-1.054-.39-2.008-1.24-.742-.662-1.243-1.477-1.389-1.727-.145-.25-.013-.386.112-.51.112-.112.248-.291.373-.437.124-.146.167-.25.25-.416.083-.166.04-.313-.022-.438s-.547-1.357-.77-1.851c-.186-.415-.384-.425-.562-.432-.145-.006-.31-.006-.476-.006z"/></svg></svg>